<?xml version="1.0" encoding="UTF-8"?>
<svg id="Layer_1" xmlns="http://www.w3.org/2000/svg" version="1.1" viewBox="0 0 754.2 741.7">
  <!-- Generator: Adobe Illustrator 29.6.0, SVG Export Plug-In . SVG Version: 2.1.1 Build 207)  -->
  <defs>
    <style>
      .st0 {
        fill: #1f3032;
      } 
     
    </style>
  </defs>
  <path class="st0" d="M421.3,108.9C142.4,67.6-105.6,364.8,180.4,520.3c5.8,65.2,60.6,116.4,127.4,116.4,131.7-6.4,62.2-95.6,232.9-105.7,246.1-41.6,210.4-373.3-119.4-422.1ZM545.1,396.4h0c-7.4,10.8-22.2,13.5-33,6.1l-39.1-26.9c-1.2-.8-2.4-1.6-3.5-2.5-2.9-2-6.5,1.5-4.5,4.4l37.1,53.9c3.2,4.6,2,10.9-2.6,14-10.7,7.4-25.3,4.6-32.7-6.1l-68.2-99.2-128.4,128.4c-6.6,6.6-17.2,6.6-23.8,0-6.6-6.6-6.6-17.2,0-23.8l128.4-128.4-99.2-68.2c-10.8-7.4-13.5-22.2-5.9-32.9,3.1-4.5,9.4-5.5,13.9-2.4l53.9,37.1c2.9,2,6.5-1.5,4.4-4.5-.8-1.2-1.6-2.4-2.5-3.5l-26.9-39.1c-7.4-10.8-4.7-25.7,6.3-33.1,4.5-3,10.6-1.8,13.6,2.6l34.7,50.5c13.7,19.9,28.8,38.7,45.1,56.2.9-2.2,2.2-4.2,4-5.9,7.1-7.1,11.4.1,18.4,7.2,7.1,7.1,14.2,11.4,7.2,18.4-1.8,1.8-3.8,3.1-5.9,4,17.5,16.3,36.3,31.4,56.2,45.1l50.5,34.7c4.5,3.1,5.6,9.3,2.6,13.8Z"/>
</svg>