<svg width="241" height="60" viewBox="0 0 241 60" fill="none" xmlns="http://www.w3.org/2000/svg">
<path d="M93.3803 59.2852C92.9158 58.8372 92.5933 58.3119 92.4126 57.7124C92.3223 57.4417 92.3062 57.2483 92.3675 57.129C92.4288 57.0098 92.561 56.8293 92.7739 56.5908C93.0449 56.3201 93.2545 56.0364 93.4029 55.7367C93.5513 55.437 93.6287 54.989 93.6287 54.3895V28.0481H98.9382V54.9277H112.48V59.514H96.5995C96.1802 59.8138 95.6254 59.962 94.9351 59.962C94.3642 59.962 93.848 59.7364 93.3836 59.2884L93.3803 59.2852Z" fill="#1F3032"/>
<path d="M116.66 33.5028C115.97 32.8582 115.625 32.0428 115.625 31.0533C115.625 30.0639 115.97 29.2033 116.66 28.5587C117.35 27.9141 118.218 27.5918 119.27 27.5918C120.321 27.5918 121.189 27.9141 121.879 28.5587C122.57 29.2033 122.915 30.0349 122.915 31.0533C122.915 32.0718 122.57 32.8582 121.879 33.5028C121.189 34.1474 120.321 34.4697 119.27 34.4697C118.218 34.4697 117.35 34.1474 116.66 33.5028ZM116.66 37.7055H121.879V59.5058H116.66V37.7055Z" fill="#1F3032"/>
<path d="M126.198 58.2949C126.589 57.6374 126.873 56.9542 127.053 56.2483C127.234 55.5457 127.324 54.6368 127.324 53.5281V26.5131H132.543V40.1786C133.353 39.3084 134.343 38.6057 135.511 38.0675C136.682 37.5293 137.94 37.2585 139.288 37.2585C142.317 37.2585 144.694 38.2641 146.42 40.2688C148.143 42.2767 149.007 45.0485 149.007 48.5841C149.007 50.7725 148.581 52.7353 147.727 54.4725C146.872 56.2097 145.688 57.5601 144.172 58.5173C142.656 59.4778 140.956 59.9548 139.066 59.9548C136.066 59.9548 133.698 58.7719 131.956 56.403C131.866 57.8405 131.372 59.0394 130.472 59.9999L126.198 58.2917V58.2949ZM142.369 53.8214C143.314 52.5193 143.785 50.7725 143.785 48.5841C143.785 46.2764 143.32 44.5102 142.391 43.2791C141.462 42.0511 140.053 41.4355 138.162 41.4355C136.272 41.4355 134.959 42.0866 133.956 43.3919C132.95 44.694 132.45 46.2474 132.45 48.0426V49.2126C132.45 51.1302 132.959 52.7031 133.979 53.931C134.998 55.159 136.437 55.7746 138.298 55.7746C140.159 55.7746 141.424 55.1235 142.369 53.8182V53.8214Z" fill="#1F3032"/>
<path d="M156.923 58.5859C155.213 57.6738 153.901 56.3685 152.988 54.6764C152.072 52.9844 151.617 51.0119 151.617 48.7655C151.617 46.5191 152.014 44.6143 152.81 42.8771C153.604 41.1399 154.813 39.7702 156.433 38.7646C158.052 37.7623 160.016 37.2595 162.326 37.2595C164.636 37.2595 166.606 37.7623 168.242 38.7646C169.877 39.7702 171.1 41.0884 171.909 42.7192C172.719 44.3532 173.126 46.113 173.126 48.0017C173.126 48.9009 172.832 49.5906 172.248 50.0708C171.664 50.551 170.861 50.7895 169.842 50.7895H156.839C156.839 52.2592 157.4 53.442 158.526 54.3413C159.652 55.2405 161.142 55.6885 163.003 55.6885C165.552 55.6885 167.623 54.9246 169.213 53.3969L171.822 56.2299C170.861 57.3999 169.626 58.312 168.11 58.9727C166.594 59.6302 164.894 59.9621 163.003 59.9621C160.665 59.9621 158.639 59.5045 156.929 58.5924L156.923 58.5859ZM167.945 46.6544C167.945 45.1558 167.429 43.9117 166.394 42.9222C165.358 41.9328 164 41.4397 162.323 41.4397C160.645 41.4397 159.384 41.9425 158.365 42.9448C157.346 43.9504 156.836 45.1848 156.836 46.6544H167.948H167.945ZM164.21 26.2014H170.103L164.703 34.5618H160.429L164.207 26.2014H164.21Z" fill="#1F3032"/>
<path d="M176.267 26.517H181.486V59.5106H176.267V26.517Z" fill="#1F3032"/>
<path d="M187.267 57.4865C185.722 55.8396 184.951 53.6061 184.951 50.7892V37.7103H190.17V50.7892C190.17 52.4361 190.544 53.6673 191.296 54.4763C192.044 55.2852 193.199 55.6913 194.76 55.6913C196.321 55.6913 197.563 55.1305 198.405 54.0057C199.244 52.8809 199.663 51.4499 199.663 49.7127V37.7103H204.882V53.6222C204.882 54.5826 204.95 55.398 205.085 56.0716C205.221 56.7452 205.482 57.4414 205.872 58.1601L201.237 59.9585C200.966 59.5396 200.721 58.9852 200.495 58.2955C200.269 57.6058 200.144 56.9773 200.115 56.4068C198.586 58.7757 196.35 59.9585 193.412 59.9585C190.863 59.9585 188.815 59.1335 187.27 57.4865H187.267Z" fill="#1F3032"/>
<path d="M209.018 26.517H214.237V59.5106H209.018V26.517Z" fill="#1F3032"/>
<path d="M221.994 58.6061C220.54 57.7069 219.407 56.4274 218.598 54.7644C217.788 53.1013 217.382 51.1611 217.382 48.9437C217.382 46.578 217.795 44.5153 218.617 42.762C219.443 41.0087 220.62 39.655 222.149 38.6946C223.678 37.7374 225.478 37.2571 227.549 37.2571C230.13 37.2571 232.242 38.2627 233.894 40.2674V37.7051H238.932V53.5719C238.932 54.6516 239.016 55.5411 239.181 56.2469C239.345 56.9528 239.623 57.6328 240.013 58.2935L235.784 59.9566C234.945 59.0284 234.465 57.8584 234.345 56.45H234.21C233.371 57.5587 232.342 58.4192 231.129 59.0348C229.913 59.6504 228.559 59.9566 227.059 59.9566C225.139 59.9566 223.452 59.5086 221.998 58.6094L221.994 58.6061ZM232.32 53.978C233.31 52.779 233.804 51.1901 233.804 49.2144V48.0445C233.804 46.246 233.316 44.6958 232.342 43.3937C231.368 42.0916 229.981 41.4373 228.181 41.4373C226.381 41.4373 225.046 42.0981 224.088 43.4163C223.127 44.7345 222.649 46.578 222.649 48.9437C222.649 51.0998 223.114 52.779 224.043 53.978C224.972 55.1769 226.307 55.7764 228.046 55.7764C229.904 55.7764 231.329 55.1769 232.32 53.978Z" fill="#1F3032"/>
<path d="M54.5884 47.6816C82.1582 43.0244 78.1487 5.90209 41.2115 0.435923C9.9741 -4.18583 -17.8054 29.0785 14.2288 46.4794C14.8803 53.7827 21.0188 59.5099 28.4991 59.5099C43.2469 58.7879 35.4634 48.8064 54.5852 47.6816H54.5884Z" fill="#1F3032"/>
<path d="M93.4835 8.86617C93.8577 8.20546 94.3641 7.68979 95.0093 7.31592C95.6544 6.94206 96.3673 6.75835 97.1543 6.75835C98.0801 6.75835 98.8865 6.98073 99.5736 7.4255C100.264 7.87027 100.764 8.50198 101.08 9.32061H99.7542C99.5188 8.81138 99.1801 8.41818 98.7381 8.141C98.2962 7.86705 97.7672 7.72846 97.1511 7.72846C96.535 7.72846 96.0286 7.86705 95.5576 8.141C95.0867 8.41496 94.719 8.80816 94.4512 9.31417C94.1835 9.82018 94.0512 10.4132 94.0512 11.0933C94.0512 11.7733 94.1835 12.3534 94.4512 12.8594C94.719 13.3655 95.0867 13.7554 95.5576 14.0326C96.0286 14.3098 96.5576 14.4452 97.1511 14.4452C97.7446 14.4452 98.2962 14.3098 98.7381 14.0391C99.1801 13.7683 99.5188 13.3783 99.7542 12.8659H101.08C100.764 13.6749 100.261 14.3001 99.5736 14.7417C98.8833 15.1832 98.0769 15.4024 97.1543 15.4024C96.3673 15.4024 95.6512 15.2187 95.0093 14.8512C94.3674 14.4838 93.8545 13.9714 93.4835 13.3139C93.1093 12.6564 92.9255 11.9183 92.9255 11.09C92.9255 10.2617 93.1126 9.52044 93.4835 8.85973V8.86617Z" fill="#1F3032"/>
<path d="M103.831 6.3429V15.335H102.725V6.3429H103.831Z" fill="#1F3032"/>
<path d="M107.454 6.79536L104.864 8.18124V7.35616L107.454 5.83813V6.79858V6.79536ZM106.822 8.67758V15.3363H105.715V8.67758H106.822Z" fill="#1F3032"/>
<path d="M113.925 9.29327C114.428 9.78316 114.679 10.489 114.679 11.414V15.3396H113.586V11.5719C113.586 10.908 113.418 10.3987 113.089 10.0474C112.757 9.69614 112.302 9.51887 111.728 9.51887C111.154 9.51887 110.68 9.70258 110.334 10.0668C109.989 10.431 109.818 10.9628 109.818 11.6589V15.3396H108.712V8.6809H109.818V9.62846C110.038 9.28682 110.334 9.02576 110.712 8.83883C111.089 8.65189 111.505 8.55843 111.96 8.55843C112.77 8.55843 113.428 8.80337 113.931 9.29327H113.925Z" fill="#1F3032"/>
<path d="M116.525 7.37707C116.379 7.23204 116.305 7.05477 116.305 6.84206C116.305 6.62934 116.379 6.45208 116.525 6.30704C116.67 6.16201 116.847 6.08788 117.06 6.08788C117.273 6.08788 117.434 6.16201 117.576 6.30704C117.718 6.45208 117.789 6.63256 117.789 6.84206C117.789 7.05155 117.718 7.23204 117.576 7.37707C117.434 7.5221 117.263 7.59623 117.06 7.59623C116.857 7.59623 116.67 7.5221 116.525 7.37707ZM117.596 8.67593V15.3346H116.489V8.67593H117.596Z" fill="#1F3032"/>
<path d="M119.479 10.1897C119.753 9.67399 120.137 9.27757 120.628 8.99395C121.118 8.71032 121.679 8.56851 122.311 8.56851C123.131 8.56851 123.805 8.76834 124.337 9.16476C124.869 9.56119 125.218 10.1123 125.389 10.8182H124.195C124.082 10.4121 123.86 10.093 123.534 9.8577C123.205 9.62243 122.799 9.5064 122.311 9.5064C121.679 9.5064 121.17 9.72234 120.779 10.1574C120.389 10.5893 120.195 11.2049 120.195 11.9978C120.195 12.7906 120.389 13.4191 120.779 13.8574C121.17 14.2957 121.679 14.5149 122.311 14.5149C122.799 14.5149 123.202 14.4021 123.528 14.1733C123.85 13.9477 124.076 13.6221 124.195 13.1999H125.389C125.211 13.88 124.853 14.4247 124.318 14.834C123.782 15.2433 123.115 15.4463 122.311 15.4463C121.679 15.4463 121.118 15.3045 120.628 15.0209C120.137 14.7373 119.753 14.3376 119.479 13.8187C119.202 13.2998 119.066 12.6939 119.066 11.9945C119.066 11.2952 119.205 10.7053 119.479 10.1897Z" fill="#1F3032"/>
<path d="M126.863 10.1897C127.137 9.67399 127.518 9.27757 127.998 8.99395C128.479 8.71032 129.018 8.56851 129.611 8.56851C130.205 8.56851 130.701 8.69421 131.13 8.9456C131.559 9.19699 131.879 9.51284 132.092 9.89316V8.67809H133.211V15.3368H132.092V14.0959C131.872 14.4859 131.547 14.8082 131.114 15.0628C130.682 15.3174 130.176 15.4463 129.601 15.4463C129.027 15.4463 128.476 15.3013 127.995 15.008C127.518 14.7147 127.14 14.3086 126.863 13.7801C126.585 13.2547 126.45 12.6552 126.45 11.9816C126.45 11.308 126.589 10.7053 126.863 10.1897ZM131.785 10.6828C131.582 10.3089 131.308 10.0253 130.966 9.82547C130.621 9.62565 130.243 9.52896 129.827 9.52896C129.411 9.52896 129.037 9.62565 128.695 9.82225C128.356 10.0156 128.082 10.2993 127.879 10.6731C127.676 11.047 127.576 11.4821 127.576 11.9849C127.576 12.4877 127.676 12.9389 127.879 13.316C128.082 13.693 128.353 13.9799 128.695 14.1797C129.037 14.3795 129.411 14.4762 129.827 14.4762C130.243 14.4762 130.621 14.3763 130.966 14.1797C131.311 13.9799 131.585 13.693 131.785 13.316C131.988 12.9389 132.088 12.5005 132.088 11.9978C132.088 11.495 131.988 11.0567 131.785 10.686V10.6828Z" fill="#1F3032"/>
<path d="M146.923 6.92788V15.3366H145.817V9.06794L143.02 15.3366H142.243L139.433 9.05505V15.3366H138.327V6.92788H139.517L142.63 13.8766L145.743 6.92788H146.923Z" fill="#1F3032"/>
<path d="M154.707 8.67802V15.3367H153.6V14.3537C153.391 14.6953 153.097 14.9596 152.72 15.1498C152.342 15.3399 151.926 15.4366 151.475 15.4366C150.955 15.4366 150.491 15.3302 150.078 15.1143C149.665 14.8984 149.339 14.5761 149.097 14.1474C148.859 13.7188 148.739 13.1966 148.739 12.581V8.68124H149.833V12.436C149.833 13.0935 149.997 13.5963 150.33 13.9476C150.662 14.2989 151.117 14.4762 151.691 14.4762C152.265 14.4762 152.749 14.2924 153.088 13.9282C153.43 13.5641 153.597 13.0323 153.597 12.3361V8.67802H154.704H154.707Z" fill="#1F3032"/>
<path d="M157.687 6.3429V15.335H156.581V6.3429H157.687Z" fill="#1F3032"/>
<path d="M160.919 9.58894V13.5145C160.919 13.8368 160.987 14.0657 161.126 14.201C161.265 14.3332 161.503 14.4008 161.842 14.4008H162.658V15.3355H161.661C161.045 15.3355 160.584 15.1937 160.274 14.9101C159.965 14.6265 159.813 14.1623 159.813 13.5145V9.58894H158.949V8.67683H159.813V7.00089H160.919V8.67683H162.658V9.58894H160.919Z" fill="#1F3032"/>
<path d="M164.032 7.37707C163.887 7.23204 163.813 7.05477 163.813 6.84206C163.813 6.62934 163.887 6.45208 164.032 6.30704C164.177 6.16201 164.355 6.08788 164.568 6.08788C164.781 6.08788 164.942 6.16201 165.084 6.30704C165.226 6.45208 165.297 6.63256 165.297 6.84206C165.297 7.05155 165.226 7.23204 165.084 7.37707C164.942 7.5221 164.771 7.59623 164.568 7.59623C164.365 7.59623 164.177 7.5221 164.032 7.37707ZM165.103 8.67593V15.3346H163.997V8.67593H165.103Z" fill="#1F3032"/>
<path d="M166.987 10.1879C167.261 9.67224 167.642 9.27581 168.122 8.99219C168.606 8.70857 169.145 8.56676 169.745 8.56676C170.264 8.56676 170.745 8.68601 171.193 8.92451C171.642 9.16301 171.98 9.47564 172.216 9.86562V6.3429H173.335V15.335H172.216V14.0845C171.996 14.4809 171.674 14.8064 171.242 15.0611C170.813 15.3157 170.309 15.4446 169.732 15.4446C169.155 15.4446 168.603 15.2996 168.122 15.0063C167.639 14.713 167.261 14.3069 166.987 13.7783C166.713 13.2497 166.574 12.6535 166.574 11.9799C166.574 11.3063 166.713 10.7036 166.987 10.1879ZM171.913 10.681C171.709 10.3072 171.435 10.0235 171.093 9.82372C170.748 9.62389 170.371 9.52721 169.958 9.52721C169.545 9.52721 169.168 9.62389 168.826 9.8205C168.484 10.0139 168.213 10.2975 168.01 10.6714C167.806 11.0452 167.706 11.4803 167.706 11.9831C167.706 12.4859 167.806 12.9371 168.01 13.3142C168.213 13.6913 168.484 13.9781 168.826 14.178C169.164 14.3778 169.542 14.4745 169.958 14.4745C170.374 14.4745 170.751 14.3746 171.093 14.178C171.438 13.9781 171.713 13.6913 171.913 13.3142C172.116 12.9371 172.216 12.4988 172.216 11.996C172.216 11.4932 172.116 11.0549 171.913 10.6843V10.681Z" fill="#1F3032"/>
<path d="M175.245 7.37707C175.1 7.23204 175.025 7.05477 175.025 6.84206C175.025 6.62934 175.1 6.45208 175.245 6.30704C175.39 6.16201 175.57 6.08788 175.78 6.08788C175.99 6.08788 176.154 6.16201 176.296 6.30704C176.438 6.45208 176.509 6.63256 176.509 6.84206C176.509 7.05155 176.438 7.23204 176.296 7.37707C176.154 7.5221 175.983 7.59623 175.78 7.59623C175.577 7.59623 175.39 7.5221 175.245 7.37707ZM176.316 8.67593V15.3346H175.209V8.67593H176.316Z" fill="#1F3032"/>
<path d="M179.183 15.1835C178.777 15.0095 178.458 14.7677 178.222 14.4551C177.987 14.1425 177.858 13.7847 177.832 13.3786H178.974C179.006 13.7106 179.161 13.9813 179.441 14.1941C179.722 14.4035 180.086 14.5099 180.541 14.5099C180.964 14.5099 181.296 14.4164 181.538 14.2295C181.78 14.0426 181.903 13.8073 181.903 13.5237C181.903 13.24 181.774 13.0144 181.512 12.8726C181.254 12.7308 180.851 12.5922 180.309 12.4536C179.816 12.3247 179.412 12.1926 179.099 12.0604C178.787 11.9251 178.519 11.7285 178.296 11.4642C178.074 11.1999 177.961 10.855 177.961 10.4264C177.961 10.0848 178.061 9.77535 178.264 9.49173C178.467 9.2081 178.754 8.9825 179.128 8.81812C179.503 8.65375 179.928 8.56995 180.406 8.56995C181.145 8.56995 181.738 8.75689 182.193 9.12753C182.648 9.50139 182.89 10.0106 182.922 10.6584H181.815C181.79 10.3104 181.651 10.03 181.396 9.82047C181.141 9.61098 180.799 9.50462 180.367 9.50462C179.97 9.50462 179.654 9.58842 179.419 9.75923C179.183 9.93005 179.067 10.1524 179.067 10.4264C179.067 10.6456 179.138 10.826 179.28 10.9678C179.422 11.1097 179.599 11.2225 179.816 11.3063C180.032 11.3901 180.328 11.4867 180.709 11.5931C181.186 11.722 181.577 11.8509 181.877 11.9766C182.177 12.1023 182.435 12.2893 182.648 12.5407C182.864 12.7921 182.973 13.1208 182.983 13.5237C182.983 13.8879 182.883 14.2166 182.68 14.5067C182.477 14.7967 182.193 15.0288 181.822 15.1932C181.451 15.3575 181.028 15.4413 180.551 15.4413C180.041 15.4413 179.583 15.3543 179.177 15.1803L179.183 15.1835Z" fill="#1F3032"/>
<path d="M184.548 10.1897C184.822 9.67399 185.206 9.27757 185.696 8.99395C186.186 8.71032 186.747 8.56851 187.38 8.56851C188.199 8.56851 188.873 8.76834 189.405 9.16476C189.938 9.56119 190.286 10.1123 190.457 10.8182H189.267C189.154 10.4121 188.931 10.093 188.605 9.8577C188.276 9.62243 187.87 9.5064 187.383 9.5064C186.751 9.5064 186.241 9.72234 185.851 10.1574C185.46 10.5893 185.267 11.2049 185.267 11.9978C185.267 12.7906 185.46 13.4191 185.851 13.8574C186.241 14.2957 186.751 14.5149 187.383 14.5149C187.87 14.5149 188.273 14.4021 188.599 14.1733C188.922 13.9477 189.147 13.6221 189.267 13.1999H190.457C190.28 13.88 189.921 14.4247 189.386 14.834C188.851 15.2433 188.183 15.4463 187.38 15.4463C186.747 15.4463 186.186 15.3045 185.696 15.0209C185.206 14.7373 184.822 14.3376 184.548 13.8187C184.27 13.2998 184.135 12.6939 184.135 11.9945C184.135 11.2952 184.273 10.7053 184.548 10.1897Z" fill="#1F3032"/>
<path d="M191.963 7.37707C191.818 7.23204 191.744 7.05477 191.744 6.84206C191.744 6.62934 191.818 6.45208 191.963 6.30704C192.109 6.16201 192.289 6.08788 192.499 6.08788C192.709 6.08788 192.873 6.16201 193.015 6.30704C193.157 6.45208 193.228 6.63256 193.228 6.84206C193.228 7.05155 193.157 7.23204 193.015 7.37707C192.873 7.5221 192.702 7.59623 192.499 7.59623C192.296 7.59623 192.109 7.5221 191.963 7.37707ZM193.034 8.67593V15.3346H191.928V8.67593H193.034Z" fill="#1F3032"/>
<path d="M197.002 8.95205C197.434 8.69743 197.941 8.56851 198.515 8.56851C199.089 8.56851 199.644 8.71032 200.128 8.99395C200.611 9.27757 200.989 9.67722 201.263 10.1897C201.537 10.7053 201.676 11.3016 201.676 11.9816C201.676 12.6617 201.537 13.2547 201.263 13.7801C200.989 14.3054 200.608 14.7147 200.128 15.008C199.644 15.2981 199.108 15.4463 198.515 15.4463C197.921 15.4463 197.447 15.3174 197.012 15.0628C196.579 14.8082 196.247 14.4891 196.021 14.1088V18.4953H194.915V8.67809H196.021V9.90605C196.241 9.52574 196.566 9.20666 196.999 8.95205H197.002ZM200.244 10.6699C200.041 10.296 199.766 10.0124 199.424 9.81903C199.079 9.62565 198.702 9.52574 198.289 9.52574C197.876 9.52574 197.508 9.62565 197.163 9.82225C196.818 10.0221 196.544 10.3089 196.337 10.686C196.131 11.0631 196.028 11.4982 196.028 11.9913C196.028 12.4844 196.131 12.9324 196.337 13.3095C196.544 13.6866 196.818 13.9734 197.163 14.1733C197.508 14.3731 197.883 14.4698 198.289 14.4698C198.695 14.4698 199.082 14.3699 199.424 14.1733C199.77 13.9734 200.044 13.6866 200.244 13.3095C200.447 12.9324 200.547 12.4909 200.547 11.9784C200.547 11.466 200.447 11.0373 200.244 10.6667V10.6699Z" fill="#1F3032"/>
<path d="M204.243 6.3429V15.335H203.137V6.3429H204.243Z" fill="#1F3032"/>
<path d="M206.166 7.37707C206.021 7.23204 205.947 7.05477 205.947 6.84206C205.947 6.62934 206.021 6.45208 206.166 6.30704C206.311 6.16201 206.489 6.08788 206.702 6.08788C206.914 6.08788 207.076 6.16201 207.218 6.30704C207.36 6.45208 207.431 6.63256 207.431 6.84206C207.431 7.05155 207.36 7.23204 207.218 7.37707C207.076 7.5221 206.905 7.59623 206.702 7.59623C206.498 7.59623 206.311 7.5221 206.166 7.37707ZM207.237 8.67593V15.3346H206.131V8.67593H207.237Z" fill="#1F3032"/>
<path d="M214.337 9.29327C214.84 9.78316 215.091 10.489 215.091 11.414V15.3396H213.998V11.5719C213.998 10.908 213.83 10.3987 213.501 10.0474C213.169 9.69614 212.714 9.51887 212.14 9.51887C211.566 9.51887 211.092 9.70258 210.746 10.0668C210.401 10.431 210.23 10.9628 210.23 11.6589V15.3396H209.124V8.6809H210.23V9.62846C210.45 9.28682 210.746 9.02576 211.124 8.83883C211.501 8.65189 211.917 8.55843 212.369 8.55843C213.179 8.55843 213.837 8.80337 214.34 9.29327H214.337Z" fill="#1F3032"/>
<path d="M216.901 10.1897C217.175 9.67399 217.556 9.27757 218.04 8.99395C218.52 8.71032 219.059 8.56851 219.649 8.56851C220.24 8.56851 220.74 8.69421 221.169 8.9456C221.598 9.19699 221.917 9.51284 222.13 9.89316V8.67809H223.249V15.3368H222.13V14.0959C221.911 14.4859 221.585 14.8082 221.153 15.0628C220.717 15.3174 220.214 15.4463 219.64 15.4463C219.066 15.4463 218.514 15.3013 218.033 15.008C217.556 14.7147 217.179 14.3086 216.901 13.7801C216.624 13.2515 216.488 12.6552 216.488 11.9816C216.488 11.308 216.627 10.7053 216.901 10.1897ZM221.827 10.6828C221.624 10.3089 221.349 10.0253 221.007 9.82547C220.662 9.62565 220.285 9.52896 219.872 9.52896C219.459 9.52896 219.082 9.62565 218.74 9.82225C218.398 10.0156 218.127 10.2993 217.924 10.6731C217.72 11.047 217.62 11.4821 217.62 11.9849C217.62 12.4877 217.72 12.9389 217.924 13.316C218.127 13.693 218.398 13.9799 218.74 14.1797C219.082 14.3795 219.456 14.4762 219.872 14.4762C220.288 14.4762 220.666 14.3763 221.007 14.1797C221.353 13.9799 221.627 13.693 221.827 13.316C222.03 12.9389 222.13 12.5005 222.13 11.9978C222.13 11.495 222.03 11.0567 221.827 10.686V10.6828Z" fill="#1F3032"/>
<path d="M227.062 8.87428C227.423 8.66478 227.862 8.55843 228.381 8.55843V9.69936H228.088C226.849 9.69936 226.227 10.373 226.227 11.7169V15.3363H225.12V8.67768H226.227V9.7606C226.42 9.38029 226.698 9.08377 227.059 8.87428H227.062Z" fill="#1F3032"/>
<path d="M229.694 7.37707C229.549 7.23204 229.475 7.05477 229.475 6.84206C229.475 6.62934 229.549 6.45208 229.694 6.30704C229.839 6.16201 230.017 6.08788 230.23 6.08788C230.442 6.08788 230.604 6.16201 230.746 6.30704C230.888 6.45208 230.959 6.63256 230.959 6.84206C230.959 7.05155 230.888 7.23204 230.746 7.37707C230.604 7.5221 230.433 7.59623 230.23 7.59623C230.026 7.59623 229.839 7.5221 229.694 7.37707ZM230.765 8.67593V15.3346H229.659V8.67593H230.765Z" fill="#1F3032"/>
<path d="M232.649 10.1897C232.923 9.67399 233.304 9.27757 233.784 8.99395C234.265 8.71032 234.804 8.56851 235.397 8.56851C235.991 8.56851 236.487 8.69421 236.916 8.9456C237.345 9.19699 237.665 9.51284 237.878 9.89316V8.67809H238.997V15.3368H237.878V14.0959C237.658 14.4859 237.333 14.8082 236.9 15.0628C236.468 15.3174 235.962 15.4463 235.387 15.4463C234.813 15.4463 234.262 15.3013 233.781 15.008C233.304 14.7147 232.926 14.3086 232.649 13.7801C232.371 13.2547 232.236 12.6552 232.236 11.9816C232.236 11.308 232.375 10.7053 232.649 10.1897ZM237.575 10.6828C237.371 10.3089 237.097 10.0253 236.755 9.82547C236.41 9.62565 236.033 9.52896 235.617 9.52896C235.2 9.52896 234.826 9.62565 234.484 9.82225C234.146 10.0156 233.871 10.2993 233.668 10.6731C233.465 11.047 233.365 11.4821 233.365 11.9849C233.365 12.4877 233.465 12.9389 233.668 13.316C233.871 13.693 234.142 13.9799 234.484 14.1797C234.826 14.3795 235.2 14.4762 235.617 14.4762C236.033 14.4762 236.41 14.3763 236.755 14.1797C237.1 13.9799 237.375 13.693 237.575 13.316C237.778 12.9389 237.878 12.5005 237.878 11.9978C237.878 11.495 237.778 11.0567 237.575 10.686V10.6828Z" fill="#1F3032"/>
<path d="M42.8081 21.2684L41.8984 20.1919C41.5533 19.7858 41.4952 19.2089 41.75 18.7384L42.0823 18.1324C42.221 17.8746 42.5306 17.7618 42.8048 17.8681C44.0564 18.358 44.9789 19.4442 45.2499 20.7592C45.308 21.046 45.1467 21.3296 44.8693 21.4263L44.2145 21.6519C43.7112 21.826 43.15 21.6713 42.8048 21.2652L42.8081 21.2684Z" fill="#C3F991"/>
<path d="M54.5785 32.525C54.9462 32.0609 54.8656 31.3808 54.4043 31.0102C46.3143 24.5159 39.592 16.6615 34.4245 7.66938C34.1277 7.1537 33.4697 6.97321 32.9536 7.26328C32.2504 7.65971 31.7697 8.33009 31.6246 9.13583C31.5052 9.79654 31.6665 10.4798 32.0117 11.0567C33.8406 14.0992 35.8631 17.0354 38.0437 19.8232C38.3308 20.1906 37.9017 20.6838 37.4985 20.4485L28.3699 15.1467C27.9892 14.9243 27.5441 14.8083 27.1086 14.8695C26.5119 14.9501 26.0055 15.2885 25.7119 15.7977C25.4152 16.307 25.37 16.9129 25.5958 17.4705C25.7603 17.8798 26.0829 18.2053 26.4635 18.4277L36.047 23.9938L21.3831 36.5247C20.6283 37.1693 20.425 38.2941 20.9928 39.1063C21.6443 40.0377 22.9443 40.186 23.7862 39.4641L38.5114 26.8783L42.5532 37.2692C42.6306 37.4723 42.7435 37.656 42.879 37.8171C43.0628 38.0298 43.2918 38.2006 43.5563 38.3199C44.0208 38.5229 44.537 38.5358 45.0079 38.3521C45.5563 38.1394 45.9724 37.6914 46.1433 37.1145C46.2691 36.6923 46.224 36.2346 46.0627 35.8253L42.237 25.9952C42.0661 25.5601 42.6209 25.212 42.9402 25.5537C45.3595 28.1385 47.9497 30.5912 50.6722 32.8698C51.1883 33.3017 51.8367 33.566 52.5108 33.5499C53.3301 33.5306 54.0688 33.1599 54.5688 32.5282L54.5785 32.525Z" fill="#C3F991"/>
</svg>
