<svg width="34" height="32" viewBox="0 0 34 32" fill="currentColor" xmlns="http://www.w3.org/2000/svg">
<path d="M21.604 13.8025L20.7164 12.7521C20.3796 12.3559 20.3229 11.7929 20.5716 11.3338L20.8958 10.7426C21.0311 10.491 21.3333 10.3809 21.6008 10.4847C22.8221 10.9627 23.7222 12.0225 23.9866 13.3056C24.0433 13.5855 23.8859 13.8623 23.6152 13.9566L22.9763 14.1768C22.4853 14.3466 21.9376 14.1956 21.6008 13.7994L21.604 13.8025Z"/>
<path d="M33.0894 24.7845C33.4482 24.3316 33.3695 23.6681 32.9194 23.3064C25.0255 16.9695 18.4661 9.30545 13.4239 0.531261C13.1343 0.0280814 12.4922 -0.148031 11.9886 0.135007C11.3024 0.521826 10.8335 1.17596 10.6918 1.96218C10.5754 2.60688 10.7327 3.27359 11.0695 3.83652C12.8542 6.80528 14.8276 9.67026 16.9553 12.3906C17.2355 12.7491 16.8169 13.2303 16.4234 13.0007L7.51601 7.82736C7.14461 7.61037 6.71025 7.49715 6.28534 7.5569C5.70306 7.63553 5.2089 7.96574 4.92248 8.46263C4.63291 8.95952 4.58884 9.55075 4.80917 10.0948C4.96969 10.4942 5.28444 10.8118 5.65584 11.0288L15.007 16.46L0.698544 28.6873C-0.037969 29.3163 -0.236261 30.4138 0.317698 31.2063C0.953491 32.1152 2.22193 32.2599 3.04342 31.5554L17.4117 19.2747L21.3555 29.4138C21.4311 29.6119 21.5412 29.7911 21.6734 29.9484C21.8528 30.1559 22.0763 30.3226 22.3344 30.439C22.7876 30.6371 23.2912 30.6497 23.7508 30.4704C24.2858 30.2629 24.6919 29.8257 24.8587 29.2628C24.9814 28.8508 24.9374 28.4043 24.78 28.0049L21.0471 18.413C20.8803 17.9884 21.4216 17.6488 21.7332 17.9822C24.0939 20.5043 26.6213 22.8976 29.2778 25.121C29.7814 25.5424 30.414 25.8003 31.0718 25.7846C31.8713 25.7657 32.5921 25.404 33.0799 24.7877L33.0894 24.7845Z"/>
</svg>
