<?xml version="1.0" encoding="UTF-8"?>
<svg id="Layer_1" fill="currentColor" xmlns="http://www.w3.org/2000/svg" version="1.1" viewBox="0 0 754.2 741.7">
  <!-- Generator: Adobe Illustrator 29.6.0, SVG Export Plug-In . SVG Version: 2.1.1 Build 207)  -->
  <!-- <rect class="st1" width="754.2" height="741.7"/> -->
  <path class="st0" d="M594.1,461.2l-73.8-50.8c-29.2-20-56.6-42.1-82.2-66,3.2-1.3,6.1-3.2,8.7-5.8,10.3-10.3-.2-16.6-10.5-26.9-10.3-10.3-16.6-20.8-26.9-10.5-2.6,2.6-4.5,5.5-5.8,8.7-23.9-25.6-46-53-66-82.2l-50.8-73.9c-4.5-6.5-13.4-8.3-19.9-3.9-16,10.8-20,32.5-9.1,48.3l39.3,57.2c1.2,1.7,2.4,3.5,3.6,5.2,3,4.3-2.2,9.5-6.5,6.5l-78.8-54.2c-6.6-4.5-15.7-3.1-20.3,3.5-11,15.7-7.1,37.3,8.6,48.1l145.1,99.7-187.7,187.7c-9.6,9.6-9.6,25.1,0,34.7,9.6,9.6,25.1,9.6,34.7,0l187.7-187.7,99.7,145.1c10.8,15.7,32.2,19.6,47.8,8.9,6.7-4.6,8.4-13.8,3.8-20.5l-54.2-78.8c-2.9-4.3,2.3-9.5,6.5-6.5,1.7,1.2,3.5,2.4,5.2,3.6l57.2,39.3c15.8,10.8,37.4,6.8,48.2-8.9h0c4.5-6.6,2.9-15.6-3.7-20.1Z"/>
</svg>