<svg width="51" height="67" viewBox="0 0 51 67" fill="none" xmlns="http://www.w3.org/2000/svg">
<path d="M4.49998 24.5363C4.49998 13.348 13.7578 4.16311 25.3333 4.16311C36.9088 4.16311 46.1666 13.348 46.1666 24.5363C46.1666 31.0802 42.7943 38.7689 38.1719 46.0804C33.7448 53.0796 28.5364 59.1551 25.3333 62.6548C22.1302 59.1551 16.9219 53.0666 12.4948 46.0804C7.87237 38.7689 4.49998 31.0802 4.49998 24.5363ZM25.3333 0C11.5312 0 0.333313 10.9802 0.333313 24.5363C0.333313 40.0569 15.9844 58.6608 22.5208 65.7511C24.0573 67.4163 26.6094 67.4163 28.1458 65.7511C34.6823 58.6608 50.3333 40.0569 50.3333 24.5363C50.3333 10.9802 39.1354 0 25.3333 0ZM31.5833 24.9786C31.5833 28.4262 28.7838 31.2233 25.3333 31.2233C21.8828 31.2233 19.0833 28.4262 19.0833 24.9786C19.0833 21.5311 21.8828 18.734 25.3333 18.734C28.7838 18.734 31.5833 21.5311 31.5833 24.9786ZM25.3333 14.5709C19.5781 14.5709 14.9166 19.2283 14.9166 24.9786C14.9166 30.7289 19.5781 35.3864 25.3333 35.3864C31.0885 35.3864 35.75 30.7289 35.75 24.9786C35.75 19.2283 31.0885 14.5709 25.3333 14.5709Z" fill="#202F31"/>
</svg>
