<svg width="72" height="67" viewBox="0 0 72 67" fill="none" xmlns="http://www.w3.org/2000/svg">
<path d="M37.9722 3.94118V7.88235H47.8333V3.94118H37.9722ZM34.0278 12.7349V2.95588C34.0278 1.31783 35.3467 0 36.9861 0H48.8194C50.4589 0 51.7778 1.31783 51.7778 2.95588V8.86765C51.7778 10.5057 50.4589 11.8235 48.8194 11.8235H37.9722V12.7349L54.3417 23.6471H63.6111C67.9623 23.6471 71.5 27.1818 71.5 31.5294V59.1176C71.5 63.4653 67.9623 67 63.6111 67H8.38889C4.03767 67 0.5 63.4653 0.5 59.1176V31.5294C0.5 27.1818 4.03767 23.6471 8.38889 23.6471H17.6583L34.0278 12.7349ZM19.347 27.2557C19.0266 27.4774 18.6444 27.5882 18.25 27.5882H8.38889C6.20712 27.5882 4.44444 29.3494 4.44444 31.5294V59.1176C4.44444 61.2976 6.20712 63.0588 8.38889 63.0588H28.1111V53.2059C28.1111 48.8583 31.6488 45.3235 36 45.3235C40.3512 45.3235 43.8889 48.8583 43.8889 53.2059V63.0588H63.6111C65.7929 63.0588 67.5556 61.2976 67.5556 59.1176V31.5294C67.5556 29.3494 65.7929 27.5882 63.6111 27.5882H53.75C53.3556 27.5882 52.9858 27.4774 52.653 27.2557L36 16.1588L19.347 27.2557ZM18.25 55.1765H12.3333V49.2647H18.25V55.1765ZM12.3333 41.3824V35.4706H18.25V41.3824H12.3333ZM59.6667 55.1765H53.75V49.2647H59.6667V55.1765ZM53.75 41.3824V35.4706H59.6667V41.3824H53.75ZM36 35.4706C38.1818 35.4706 39.9444 33.7094 39.9444 31.5294C39.9444 29.3494 38.1818 27.5882 36 27.5882C33.8182 27.5882 32.0556 29.3494 32.0556 31.5294C32.0556 33.7094 33.8182 35.4706 36 35.4706ZM36 23.6471C40.3512 23.6471 43.8889 27.1818 43.8889 31.5294C43.8889 35.877 40.3512 39.4118 36 39.4118C31.6488 39.4118 28.1111 35.877 28.1111 31.5294C28.1111 27.1818 31.6488 23.6471 36 23.6471ZM39.9444 53.2059C39.9444 51.0259 38.1818 49.2647 36 49.2647C33.8182 49.2647 32.0556 51.0259 32.0556 53.2059V63.0588H39.9444V53.2059Z" fill="#202F31"/>
</svg>
