<svg width="33" height="33" viewBox="0 0 33 33" fill="none" xmlns="http://www.w3.org/2000/svg">
<g clip-path="url(#clip0_17_395)">
<path d="M32.5 16.748C32.5 7.91157 25.3365 0.748047 16.5 0.748047C7.66352 0.748047 0.5 7.91157 0.5 16.748C0.5 24.2514 5.66608 30.5477 12.635 32.277V21.6376H9.33584V16.748H12.635V14.6412C12.635 9.19541 15.0997 6.67125 20.4462 6.67125C21.46 6.67125 23.2091 6.87029 23.9246 7.06869V11.5007C23.547 11.461 22.891 11.4412 22.0763 11.4412C19.453 11.4412 18.4392 12.4351 18.4392 15.0188V16.748H23.6654L22.7675 21.6376H18.4392V32.6309C26.3618 31.6741 32.5006 24.9285 32.5006 16.748H32.5Z" fill="#0866FF"/>
<path d="M22.7669 21.6373L23.6648 16.7477H18.4386V15.0184C18.4386 12.4347 19.4523 11.4408 22.0757 11.4408C22.8904 11.4408 23.5464 11.4607 23.924 11.5003V7.06834C23.2085 6.8693 21.4594 6.6709 20.4456 6.6709C15.099 6.6709 12.6344 9.19506 12.6344 14.6408V16.7477H9.33521V21.6373H12.6344V32.2767C13.8722 32.5839 15.1669 32.7477 16.4994 32.7477C17.1554 32.7477 17.8024 32.7074 18.4379 32.6306V21.6373H22.7662H22.7669Z" fill="white"/>
</g>
<defs>
<clipPath id="clip0_17_395">
<rect width="32" height="32" fill="white" transform="translate(0.5 0.748047)"/>
</clipPath>
</defs>
</svg>
