<svg width="33" height="33" viewBox="0 0 33 33" fill="none" xmlns="http://www.w3.org/2000/svg">
<g clip-path="url(#clip0_17_398)">
<path d="M16.5 3.6293C20.775 3.6293 21.2813 3.64805 22.9625 3.72305C24.525 3.7918 25.3688 4.0543 25.9313 4.27305C26.675 4.56055 27.2125 4.91055 27.7688 5.4668C28.3313 6.0293 28.675 6.56055 28.9625 7.3043C29.1813 7.8668 29.4438 8.7168 29.5125 10.273C29.5875 11.9605 29.6063 12.4668 29.6063 16.7355C29.6063 21.0105 29.5875 21.5168 29.5125 23.198C29.4438 24.7605 29.1813 25.6043 28.9625 26.1668C28.675 26.9105 28.325 27.448 27.7688 28.0043C27.2063 28.5668 26.675 28.9105 25.9313 29.198C25.3688 29.4168 24.5188 29.6793 22.9625 29.748C21.275 29.823 20.7688 29.8418 16.5 29.8418C12.225 29.8418 11.7188 29.823 10.0375 29.748C8.475 29.6793 7.63125 29.4168 7.06875 29.198C6.325 28.9105 5.7875 28.5605 5.23125 28.0043C4.66875 27.4418 4.325 26.9105 4.0375 26.1668C3.81875 25.6043 3.55625 24.7543 3.4875 23.198C3.4125 21.5105 3.39375 21.0043 3.39375 16.7355C3.39375 12.4605 3.4125 11.9543 3.4875 10.273C3.55625 8.71055 3.81875 7.8668 4.0375 7.3043C4.325 6.56055 4.675 6.02305 5.23125 5.4668C5.79375 4.9043 6.325 4.56055 7.06875 4.27305C7.63125 4.0543 8.48125 3.7918 10.0375 3.72305C11.7188 3.64805 12.225 3.6293 16.5 3.6293ZM16.5 0.748047C12.1563 0.748047 11.6125 0.766797 9.90625 0.841797C8.20625 0.916797 7.0375 1.1918 6.025 1.58555C4.96875 1.99805 4.075 2.5418 3.1875 3.43555C2.29375 4.32305 1.75 5.2168 1.3375 6.2668C0.94375 7.28555 0.66875 8.44805 0.59375 10.148C0.51875 11.8605 0.5 12.4043 0.5 16.748C0.5 21.0918 0.51875 21.6355 0.59375 23.3418C0.66875 25.0418 0.94375 26.2105 1.3375 27.223C1.75 28.2793 2.29375 29.173 3.1875 30.0605C4.075 30.948 4.96875 31.498 6.01875 31.9043C7.0375 32.298 8.2 32.573 9.9 32.648C11.6063 32.723 12.15 32.7418 16.4938 32.7418C20.8375 32.7418 21.3813 32.723 23.0875 32.648C24.7875 32.573 25.9563 32.298 26.9688 31.9043C28.0188 31.498 28.9125 30.948 29.8 30.0605C30.6875 29.173 31.2375 28.2793 31.6438 27.2293C32.0375 26.2106 32.3125 25.048 32.3875 23.348C32.4625 21.6418 32.4813 21.098 32.4813 16.7543C32.4813 12.4105 32.4625 11.8668 32.3875 10.1605C32.3125 8.46055 32.0375 7.2918 31.6438 6.2793C31.25 5.2168 30.7063 4.32305 29.8125 3.43555C28.925 2.54805 28.0313 1.99805 26.9813 1.5918C25.9625 1.19805 24.8 0.923047 23.1 0.848047C21.3875 0.766797 20.8438 0.748047 16.5 0.748047Z" fill="#000100"/>
<path d="M16.5 8.5293C11.9625 8.5293 8.28125 12.2105 8.28125 16.748C8.28125 21.2855 11.9625 24.9668 16.5 24.9668C21.0375 24.9668 24.7188 21.2855 24.7188 16.748C24.7188 12.2105 21.0375 8.5293 16.5 8.5293ZM16.5 22.0793C13.5563 22.0793 11.1687 19.6918 11.1687 16.748C11.1687 13.8043 13.5563 11.4168 16.5 11.4168C19.4438 11.4168 21.8312 13.8043 21.8312 16.748C21.8312 19.6918 19.4438 22.0793 16.5 22.0793Z" fill="#000100"/>
<path d="M26.9625 8.20391C26.9625 9.26641 26.1 10.1227 25.0438 10.1227C23.9813 10.1227 23.125 9.26016 23.125 8.20391C23.125 7.14141 23.9875 6.28516 25.0438 6.28516C26.1 6.28516 26.9625 7.14766 26.9625 8.20391Z" fill="#000100"/>
</g>
<defs>
<clipPath id="clip0_17_398">
<rect width="32" height="32" fill="white" transform="translate(0.5 0.748047)"/>
</clipPath>
</defs>
</svg>
