<?xml version="1.0" encoding="UTF-8"?>
<svg id="Layer_1" xmlns="http://www.w3.org/2000/svg" version="1.1" viewBox="100 100 765.3 267.8" width="100%" height="100%">
  <!-- Generator: Adobe Illustrator 29.6.0, SVG Export Plug-In . SVG Version: 2.1.1 Build 207)  -->
  <defs>
    <style>
      .st0 {
        fill: #1f3032;
      }
    </style>
  </defs>
  <path class="st0" d="M275.8,126.5c-114.3-16.9-216,104.9-98.8,168.6,2.4,26.7,24.9,47.7,52.2,47.7,54-2.6,25.5-39.2,95.5-43.3,100.9-17,86.2-153-48.9-173ZM326.6,244.4h0c-3,4.4-9.1,5.5-13.5,2.5l-16-11c-.5-.3-1-.7-1.5-1-1.2-.8-2.7.6-1.8,1.8l15.2,22.1c1.3,1.9.8,4.5-1.1,5.7-4.4,3-10.4,1.9-13.4-2.5l-28-40.7-52.6,52.6c-2.7,2.7-7,2.7-9.7,0-2.7-2.7-2.7-7,0-9.7l52.6-52.6-40.7-28c-4.4-3-5.5-9.1-2.4-13.5,1.3-1.8,3.8-2.2,5.7-1l22.1,15.2c1.2.8,2.7-.6,1.8-1.8-.3-.5-.7-1-1-1.5l-11-16c-3.1-4.4-1.9-10.5,2.6-13.6,1.8-1.2,4.3-.7,5.6,1.1l14.2,20.7c5.6,8.2,11.8,15.9,18.5,23,.4-.9.9-1.7,1.6-2.4,2.9-2.9,4.7,0,7.5,2.9,2.9,2.9,5.8,4.7,2.9,7.5-.7.7-1.5,1.3-2.4,1.6,7.2,6.7,14.9,12.9,23,18.5l20.7,14.2c1.8,1.3,2.3,3.8,1,5.6Z"/>
  <g>
    <path class="st0" d="M449.9,339.9c-1.2-1.2-2.1-2.6-2.6-4.2-.2-.7-.3-1.2-.1-1.5.2-.3.5-.8,1.1-1.4.7-.7,1.3-1.5,1.7-2.3.4-.8.6-2,.6-3.6v-69.6h14v71h35.8v12.1h-41.9c-1.1.8-2.6,1.2-4.4,1.2s-2.9-.6-4.1-1.8Z"/>
    <path class="st0" d="M511.4,271.8c-1.8-1.7-2.7-3.9-2.7-6.5s.9-4.9,2.7-6.6c1.8-1.7,4.1-2.6,6.9-2.6s5.1.9,6.9,2.6c1.8,1.7,2.7,3.9,2.7,6.6s-.9,4.8-2.7,6.5c-1.8,1.7-4.1,2.6-6.9,2.6s-5.1-.9-6.9-2.6ZM511.4,282.9h13.8v57.6h-13.8v-57.6Z"/>
    <path class="st0" d="M536.5,337.3c1-1.7,1.8-3.5,2.3-5.4.5-1.9.7-4.3.7-7.2v-71.4h13.8v36.1c2.1-2.3,4.8-4.2,7.8-5.6s6.4-2.1,10-2.1c8,0,14.3,2.7,18.8,8,4.6,5.3,6.8,12.6,6.8,22s-1.1,11-3.4,15.6c-2.3,4.6-5.4,8.2-9.4,10.7-4,2.5-8.5,3.8-13.5,3.8-7.9,0-14.2-3.1-18.8-9.4-.2,3.8-1.5,7-3.9,9.5l-11.3-4.5ZM579.2,325.5c2.5-3.4,3.7-8.1,3.7-13.8s-1.2-10.8-3.7-14c-2.5-3.2-6.2-4.9-11.2-4.9s-8.5,1.7-11.1,5.2c-2.7,3.4-4,7.5-4,12.3v3.1c0,5.1,1.3,9.2,4,12.5,2.7,3.2,6.5,4.9,11.4,4.9s8.3-1.7,10.8-5.2Z"/>
    <path class="st0" d="M617.7,338.1c-4.5-2.4-8-5.9-10.4-10.3-2.4-4.5-3.6-9.7-3.6-15.6s1-11,3.1-15.6c2.1-4.6,5.3-8.2,9.6-10.9,4.3-2.7,9.5-4,15.6-4s11.3,1.3,15.6,4c4.3,2.7,7.5,6.1,9.7,10.5,2.1,4.3,3.2,9,3.2,14s-.8,4.2-2.3,5.5c-1.5,1.3-3.7,1.9-6.4,1.9h-34.3c0,3.9,1.5,7,4.5,9.4,3,2.4,6.9,3.6,11.8,3.6s12.2-2,16.4-6.1l6.9,7.5c-2.5,3.1-5.8,5.5-9.8,7.2-4,1.7-8.5,2.6-13.5,2.6s-11.5-1.2-16-3.6ZM646.8,306.5c0-4-1.4-7.2-4.1-9.9s-6.3-3.9-10.8-3.9-7.8,1.3-10.5,4c-2.7,2.7-4,5.9-4,9.8h29.3ZM636.9,252.5h15.6l-14.3,22.1h-11.3l10-22.1Z"/>
    <path class="st0" d="M668.8,253.3h13.8v87.2h-13.8v-87.2Z"/>
    <path class="st0" d="M697.8,335.2c-4.1-4.4-6.1-10.3-6.1-17.7v-34.6h13.8v34.6c0,4.4,1,7.6,3,9.7,2,2.1,5,3.2,9.1,3.2s7.4-1.5,9.6-4.5c2.2-3,3.3-6.8,3.3-11.3v-31.7h13.8v42.1c0,2.5.2,4.7.5,6.5.4,1.8,1,3.6,2.1,5.5l-12.2,4.8c-.7-1.1-1.4-2.6-2-4.4-.6-1.8-.9-3.5-1-5-4,6.3-9.9,9.4-17.7,9.4s-12.1-2.2-16.2-6.5Z"/>
    <path class="st0" d="M755.2,253.3h13.8v87.2h-13.8v-87.2Z"/>
    <path class="st0" d="M789.5,338.1c-3.8-2.4-6.8-5.8-9-10.2-2.1-4.4-3.2-9.5-3.2-15.4s1.1-11.7,3.3-16.3c2.2-4.6,5.3-8.2,9.3-10.8,4-2.5,8.8-3.8,14.3-3.8s12.4,2.7,16.7,8v-6.8h13.3v41.9c0,2.9.2,5.2.7,7.1.4,1.9,1.2,3.7,2.2,5.4l-11.2,4.4c-2.2-2.5-3.5-5.5-3.8-9.3h-.4c-2.2,2.9-4.9,5.2-8.1,6.8-3.2,1.6-6.8,2.4-10.8,2.4s-9.5-1.2-13.4-3.6ZM816.8,325.9c2.6-3.2,3.9-7.4,3.9-12.6v-3.1c0-4.8-1.3-8.8-3.9-12.3-2.6-3.4-6.2-5.2-11-5.2s-8.3,1.7-10.8,5.2c-2.5,3.5-3.8,8.4-3.8,14.6s1.2,10.1,3.7,13.3c2.5,3.2,6,4.8,10.6,4.8s8.7-1.6,11.3-4.8Z"/>
  </g>
  <g>
    <path class="st0" d="M450.7,140.5c1.4-2.4,3.4-4.4,5.8-5.7,2.5-1.4,5.2-2.1,8.1-2.1s6.3.8,8.9,2.5c2.6,1.6,4.5,4,5.7,7h-6.2c-.8-1.7-1.9-2.9-3.4-3.7-1.4-.8-3.1-1.2-5-1.2s-3.9.5-5.6,1.4c-1.6.9-2.9,2.3-3.8,4-.9,1.8-1.4,3.8-1.4,6.1s.5,4.4,1.4,6.1c.9,1.8,2.2,3.1,3.8,4.1,1.6,1,3.5,1.4,5.6,1.4s3.6-.4,5-1.2c1.4-.8,2.6-2.1,3.4-3.7h6.2c-1.2,3-3.1,5.3-5.7,7-2.6,1.6-5.6,2.4-8.9,2.4s-5.7-.7-8.1-2.1c-2.4-1.4-4.4-3.3-5.8-5.7-1.4-2.4-2.2-5.2-2.2-8.3s.7-5.8,2.2-8.3Z"/>
    <path class="st0" d="M490.4,131.1v33.5h-5.2v-33.5h5.2Z"/>
    <path class="st0" d="M504.5,132.9l-10,4.9v-3.8l10-5.5v4.4ZM502.4,139.6v24.9h-5.2v-24.9h5.2Z"/>
    <path class="st0" d="M527.1,140.5c1.6.8,2.8,2,3.6,3.6.9,1.6,1.3,3.5,1.3,5.8v14.7h-5.1v-13.9c0-2.2-.6-3.9-1.7-5.1-1.1-1.2-2.6-1.8-4.6-1.8s-3.5.6-4.6,1.8c-1.1,1.2-1.7,2.9-1.7,5.1v13.9h-5.2v-24.9h5.2v2.9c.8-1,1.9-1.8,3.2-2.4,1.3-.6,2.7-.9,4.2-.9s3.7.4,5.3,1.2Z"/>
    <path class="st0" d="M538.8,135.4c-.6-.6-1-1.4-1-2.4s.3-1.7,1-2.4c.6-.6,1.4-1,2.4-1s1.7.3,2.3,1c.6.6,1,1.4,1,2.4s-.3,1.7-1,2.4c-.6.6-1.4,1-2.3,1s-1.7-.3-2.4-1ZM543.7,139.6v24.9h-5.2v-24.9h5.2Z"/>
    <path class="st0" d="M550.4,145.3c1-1.9,2.5-3.4,4.3-4.5,1.8-1.1,4-1.6,6.3-1.6s5.5.7,7.5,2.2c2,1.4,3.3,3.5,4,6.1h-5.6c-.5-1.2-1.2-2.2-2.2-2.9-1-.7-2.2-1-3.8-1s-3.8.7-5,2.2c-1.3,1.5-1.9,3.6-1.9,6.3s.6,4.8,1.9,6.3c1.3,1.5,2.9,2.3,5,2.3,3,0,5-1.3,5.9-3.9h5.6c-.7,2.5-2.1,4.5-4.1,6-2,1.5-4.5,2.2-7.4,2.2s-4.5-.5-6.3-1.6c-1.8-1.1-3.3-2.6-4.3-4.5s-1.6-4.2-1.6-6.8.5-4.8,1.6-6.8Z"/>
    <path class="st0" d="M577.5,145.4c1-1.9,2.5-3.4,4.3-4.5,1.8-1.1,3.8-1.6,6-1.6s3.7.4,5.1,1.2c1.5.8,2.6,1.7,3.5,2.9v-3.6h5.2v24.9h-5.2v-3.7c-.9,1.2-2.1,2.2-3.6,2.9-1.5.8-3.2,1.2-5.2,1.2s-4.1-.6-5.9-1.7c-1.8-1.1-3.2-2.6-4.2-4.6-1-2-1.6-4.2-1.6-6.7s.5-4.7,1.6-6.7ZM595.3,147.6c-.7-1.3-1.6-2.2-2.8-2.9-1.1-.7-2.4-1-3.7-1s-2.6.3-3.7,1c-1.1.6-2.1,1.6-2.8,2.9-.7,1.3-1.1,2.7-1.1,4.5s.4,3.2,1.1,4.5c.7,1.3,1.6,2.3,2.8,3,1.2.7,2.4,1,3.7,1s2.6-.3,3.7-1c1.1-.7,2.1-1.6,2.8-2.9.7-1.3,1.1-2.8,1.1-4.5s-.4-3.2-1.1-4.5Z"/>
    <path class="st0" d="M483.4,187.5v31.5h-5.2v-21.5l-9.6,21.5h-3.6l-9.6-21.5v21.5h-5.2v-31.5h5.6l11,24.7,11-24.7h5.5Z"/>
    <path class="st0" d="M512.8,194v24.9h-5.2v-2.9c-.8,1-1.9,1.8-3.2,2.4-1.3.6-2.7.9-4.2.9s-3.7-.4-5.3-1.2c-1.6-.8-2.8-2-3.7-3.6-.9-1.6-1.3-3.5-1.3-5.8v-14.7h5.1v13.9c0,2.2.6,3.9,1.7,5.1,1.1,1.2,2.6,1.8,4.6,1.8s3.5-.6,4.6-1.8c1.1-1.2,1.7-2.9,1.7-5.1v-13.9h5.2Z"/>
    <path class="st0" d="M524.8,185.4v33.5h-5.2v-33.5h5.2Z"/>
    <path class="st0" d="M537.6,198.2v13.8c0,.9.2,1.6.7,2,.4.4,1.2.6,2.2.6h3.2v4.3h-4.1c-2.3,0-4.1-.5-5.3-1.6-1.2-1.1-1.9-2.9-1.9-5.3v-13.8h-2.9v-4.2h2.9v-6.2h5.2v6.2h6.1v4.2h-6.1Z"/>
    <path class="st0" d="M548.7,189.7c-.6-.6-1-1.4-1-2.4s.3-1.7,1-2.4c.6-.6,1.4-1,2.4-1s1.7.3,2.3,1c.6.6,1,1.4,1,2.4s-.3,1.7-1,2.4c-.6.6-1.4,1-2.3,1s-1.7-.3-2.4-1ZM553.6,194v24.9h-5.2v-24.9h5.2Z"/>
    <path class="st0" d="M560.2,199.7c1-1.9,2.5-3.4,4.3-4.5,1.8-1.1,3.8-1.6,6-1.6s3.2.4,4.8,1.1c1.6.7,2.8,1.7,3.8,2.8v-12h5.2v33.5h-5.2v-3.8c-.8,1.2-2,2.2-3.5,3-1.5.8-3.2,1.2-5.1,1.2s-4.2-.6-6-1.7c-1.8-1.1-3.2-2.6-4.3-4.6-1-2-1.6-4.2-1.6-6.7s.5-4.7,1.6-6.7ZM578,201.9c-.7-1.3-1.6-2.2-2.8-2.9-1.1-.7-2.4-1-3.7-1s-2.6.3-3.7,1c-1.1.6-2.1,1.6-2.8,2.9-.7,1.3-1.1,2.7-1.1,4.5s.4,3.2,1.1,4.5c.7,1.3,1.6,2.3,2.8,3,1.2.7,2.4,1,3.7,1s2.6-.3,3.7-1c1.1-.7,2.1-1.6,2.8-2.9.7-1.3,1.1-2.8,1.1-4.5s-.4-3.2-1.1-4.5Z"/>
    <path class="st0" d="M591.3,189.7c-.6-.6-1-1.4-1-2.4s.3-1.7,1-2.4c.6-.6,1.4-1,2.4-1s1.7.3,2.3,1c.6.6,1,1.4,1,2.4s-.3,1.7-1,2.4c-.6.6-1.4,1-2.3,1s-1.7-.3-2.4-1ZM596.2,194v24.9h-5.2v-24.9h5.2Z"/>
    <path class="st0" d="M606.8,218.3c-1.6-.7-2.8-1.7-3.7-2.9-.9-1.2-1.4-2.6-1.4-4.1h5.3c0,1.1.6,1.9,1.5,2.6.9.7,2.1,1.1,3.5,1.1s2.6-.3,3.4-.8c.8-.6,1.2-1.3,1.2-2.2s-.4-1.6-1.3-2.1c-.9-.5-2.3-1-4.2-1.5-1.9-.5-3.4-1-4.6-1.5-1.2-.5-2.2-1.2-3.1-2.2-.9-1-1.3-2.3-1.3-3.9s.4-2.5,1.2-3.6c.8-1.1,1.9-2,3.4-2.6,1.5-.6,3.1-1,5-1,2.8,0,5.1.7,6.9,2.2,1.7,1.4,2.7,3.4,2.8,5.9h-5.2c0-1.1-.5-2-1.4-2.7-.8-.7-1.9-1-3.3-1s-2.4.3-3.1.8c-.7.5-1.1,1.2-1.1,2s.2,1.2.7,1.7c.5.5,1.1.8,1.8,1.1.7.3,1.7.6,3.1,1,1.8.5,3.3,1,4.5,1.5s2.2,1.2,3,2.2c.8,1,1.3,2.2,1.3,3.8,0,1.4-.4,2.7-1.2,3.8-.8,1.1-1.9,2-3.3,2.6-1.4.6-3.1,1-5,1s-3.7-.4-5.3-1.1Z"/>
    <path class="st0" d="M627,199.7c1-1.9,2.5-3.4,4.3-4.5,1.8-1.1,4-1.6,6.3-1.6s5.5.7,7.5,2.2c2,1.4,3.3,3.5,4,6.1h-5.6c-.5-1.2-1.2-2.2-2.2-2.9-1-.7-2.2-1-3.8-1s-3.8.7-5,2.2c-1.3,1.5-1.9,3.6-1.9,6.3s.6,4.8,1.9,6.3c1.3,1.5,2.9,2.3,5,2.3,3,0,5-1.3,5.9-3.9h5.6c-.7,2.5-2.1,4.5-4.1,6-2,1.5-4.5,2.2-7.4,2.2s-4.5-.5-6.3-1.6c-1.8-1.1-3.3-2.6-4.3-4.5s-1.6-4.2-1.6-6.8.5-4.8,1.6-6.8Z"/>
    <path class="st0" d="M654.6,189.7c-.6-.6-1-1.4-1-2.4s.3-1.7,1-2.4c.6-.6,1.4-1,2.4-1s1.7.3,2.3,1c.6.6,1,1.4,1,2.4s-.3,1.7-1,2.4c-.6.6-1.4,1-2.3,1s-1.7-.3-2.4-1ZM659.5,194v24.9h-5.2v-24.9h5.2Z"/>
    <path class="st0" d="M675,194.7c1.5-.8,3.2-1.2,5.1-1.2s4.2.5,6,1.6c1.8,1.1,3.2,2.6,4.2,4.5,1,1.9,1.5,4.1,1.5,6.7s-.5,4.7-1.5,6.7c-1,2-2.4,3.5-4.2,4.6-1.8,1.1-3.8,1.7-6,1.7s-3.6-.4-5.1-1.2c-1.5-.8-2.7-1.7-3.6-2.9v15.5h-5.2v-36.8h5.2v3.7c.9-1.1,2.1-2.1,3.6-2.9ZM685.5,201.9c-.7-1.3-1.6-2.2-2.8-2.9-1.2-.6-2.4-1-3.7-1s-2.5.3-3.7,1c-1.2.7-2.1,1.6-2.8,2.9-.7,1.3-1.1,2.8-1.1,4.5s.4,3.2,1.1,4.5c.7,1.3,1.6,2.3,2.8,2.9,1.2.7,2.4,1,3.7,1s2.6-.3,3.7-1c1.2-.7,2.1-1.7,2.8-3,.7-1.3,1.1-2.8,1.1-4.5s-.4-3.2-1.1-4.5Z"/>
    <path class="st0" d="M702.1,185.4v33.5h-5.2v-33.5h5.2Z"/>
    <path class="st0" d="M709.2,189.7c-.6-.6-1-1.4-1-2.4s.3-1.7,1-2.4c.6-.6,1.4-1,2.4-1s1.7.3,2.3,1c.6.6,1,1.4,1,2.4s-.3,1.7-1,2.4c-.6.6-1.4,1-2.3,1s-1.7-.3-2.4-1ZM714.1,194v24.9h-5.2v-24.9h5.2Z"/>
    <path class="st0" d="M738.7,194.8c1.6.8,2.8,2,3.6,3.6.9,1.6,1.3,3.5,1.3,5.8v14.7h-5.1v-13.9c0-2.2-.6-3.9-1.7-5.1-1.1-1.2-2.6-1.8-4.6-1.8s-3.5.6-4.6,1.8c-1.1,1.2-1.7,2.9-1.7,5.1v13.9h-5.2v-24.9h5.2v2.9c.8-1,1.9-1.8,3.2-2.4,1.3-.6,2.7-.9,4.2-.9s3.7.4,5.3,1.2Z"/>
    <path class="st0" d="M750.1,199.7c1-1.9,2.5-3.4,4.3-4.5,1.8-1.1,3.8-1.6,6-1.6s3.7.4,5.1,1.2c1.5.8,2.6,1.7,3.5,2.9v-3.6h5.2v24.9h-5.2v-3.7c-.9,1.2-2.1,2.2-3.6,2.9-1.5.8-3.2,1.2-5.2,1.2s-4.1-.6-5.9-1.7c-1.8-1.1-3.2-2.6-4.2-4.6-1-2-1.6-4.2-1.6-6.7s.5-4.7,1.6-6.7ZM767.9,201.9c-.7-1.3-1.6-2.2-2.8-2.9-1.1-.7-2.4-1-3.7-1s-2.6.3-3.7,1c-1.1.6-2.1,1.6-2.8,2.9-.7,1.3-1.1,2.7-1.1,4.5s.4,3.2,1.1,4.5c.7,1.3,1.6,2.3,2.8,3,1.2.7,2.4,1,3.7,1s2.6-.3,3.7-1c1.1-.7,2.1-1.6,2.8-2.9.7-1.3,1.1-2.8,1.1-4.5s-.4-3.2-1.1-4.5Z"/>
    <path class="st0" d="M789.1,194.6c1.3-.7,2.7-1.1,4.5-1.1v5.3h-1.3c-2,0-3.6.5-4.6,1.5-1,1-1.6,2.8-1.6,5.3v13.1h-5.2v-24.9h5.2v3.6c.8-1.3,1.8-2.3,3-3Z"/>
    <path class="st0" d="M798.6,189.7c-.6-.6-1-1.4-1-2.4s.3-1.7,1-2.4c.6-.6,1.4-1,2.4-1s1.7.3,2.3,1c.6.6,1,1.4,1,2.4s-.3,1.7-1,2.4c-.6.6-1.4,1-2.3,1s-1.7-.3-2.4-1ZM803.5,194v24.9h-5.2v-24.9h5.2Z"/>
    <path class="st0" d="M810.1,199.7c1-1.9,2.5-3.4,4.3-4.5,1.8-1.1,3.8-1.6,6-1.6s3.7.4,5.1,1.2c1.5.8,2.6,1.7,3.5,2.9v-3.6h5.2v24.9h-5.2v-3.7c-.9,1.2-2.1,2.2-3.6,2.9-1.5.8-3.2,1.2-5.2,1.2s-4.1-.6-5.9-1.7c-1.8-1.1-3.2-2.6-4.2-4.6-1-2-1.6-4.2-1.6-6.7s.5-4.7,1.6-6.7ZM827.9,201.9c-.7-1.3-1.6-2.2-2.8-2.9-1.1-.7-2.4-1-3.7-1s-2.6.3-3.7,1c-1.1.6-2.1,1.6-2.8,2.9-.7,1.3-1.1,2.7-1.1,4.5s.4,3.2,1.1,4.5c.7,1.3,1.6,2.3,2.8,3,1.2.7,2.4,1,3.7,1s2.6-.3,3.7-1c1.1-.7,2.1-1.6,2.8-2.9.7-1.3,1.1-2.8,1.1-4.5s-.4-3.2-1.1-4.5Z"/>
  </g>
</svg>