<svg width="100" height="67" viewBox="0 0 100 67" fill="currentColor" xmlns="http://www.w3.org/2000/svg">
<path d="M33.7637 63.9954C33.3094 65.7637 31.7153 67 29.8896 67H4.14266C1.25121 67 -0.685034 64.0266 0.484429 61.3822L26.5766 2.38218C27.2171 0.934046 28.6514 0 30.2349 0H45.0479C47.6609 0 49.5723 2.46452 48.9221 4.99536L33.7637 63.9954ZM84.5583 63.9954C84.1039 65.7637 82.5099 67 80.6841 67H54.9372C52.0457 67 50.1095 64.0266 51.279 61.3822L77.3712 2.38218C78.0116 0.934046 79.446 0 81.0294 0H95.8424C98.4554 0 100.367 2.46452 99.7166 4.99536L84.5583 63.9954Z"/>
</svg>
